<svg width="128" height="128" viewBox="0 0 128 128" xmlns="http://www.w3.org/2000/svg">
  <!-- Fondo con gradiente verde -->
  <defs>
    <linearGradient id="bgGradient128" x1="0%" y1="0%" x2="100%" y2="100%">
      <stop offset="0%" style="stop-color:#4CAF50;stop-opacity:1" />
      <stop offset="100%" style="stop-color:#2E7D32;stop-opacity:1" />
    </linearGradient>
    <filter id="shadowLarge" x="-20%" y="-20%" width="140%" height="140%">
      <feDropShadow dx="2" dy="2" stdDeviation="3" flood-color="rgba(0,0,0,0.3)"/>
    </filter>
    <filter id="glowEffect" x="-20%" y="-20%" width="140%" height="140%">
      <feGaussianBlur stdDeviation="2" result="coloredBlur"/>
      <feMerge> 
        <feMergeNode in="coloredBlur"/>
        <feMergeNode in="SourceGraphic"/>
      </feMerge>
    </filter>
  </defs>
  
  <!-- Fondo redondeado -->
  <rect width="128" height="128" rx="20" fill="url(#bgGradient128)"/>
  
  <!-- Carpeta principal de marcadores (más grande y detallada) -->
  <path d="M16 32 L16 104 L112 104 L112 48 L64 48 L48 32 Z" fill="white" opacity="0.95" filter="url(#shadowLarge)"/>
  
  <!-- Pestaña de la carpeta -->
  <path d="M48 32 L64 32 L64 48 L48 48 Z" fill="rgba(255,255,255,0.8)"/>
  
  <!-- Marcadores simulados dentro de la carpeta -->
  <g opacity="0.7">
    <!-- Marcador 1 -->
    <circle cx="24" cy="60" r="3" fill="#4CAF50"/>
    <rect x="30" y="57" width="60" height="6" rx="3" fill="rgba(76,175,80,0.6)"/>
    
    <!-- Marcador 2 -->
    <circle cx="24" cy="72" r="3" fill="#2196F3"/>
    <rect x="30" y="69" width="45" height="6" rx="3" fill="rgba(33,150,243,0.6)"/>
    
    <!-- Marcador 3 -->
    <circle cx="24" cy="84" r="3" fill="#FF9800"/>
    <rect x="30" y="81" width="55" height="6" rx="3" fill="rgba(255,152,0,0.6)"/>
    
    <!-- Marcador 4 -->
    <circle cx="24" cy="96" r="3" fill="#E91E63"/>
    <rect x="30" y="93" width="50" height="6" rx="3" fill="rgba(233,30,99,0.6)"/>
  </g>
  
  <!-- Ventanas flotantes del gestor -->
  <g filter="url(#shadowLarge)">
    <!-- Ventana 1 -->
    <rect x="70" y="16" width="38" height="28" rx="4" fill="white" opacity="0.9"/>
    <rect x="73" y="19" width="32" height="4" rx="2" fill="rgba(76,175,80,0.8)"/>
    <rect x="73" y="25" width="28" height="2" rx="1" fill="rgba(76,175,80,0.5)"/>
    <rect x="73" y="29" width="30" height="2" rx="1" fill="rgba(76,175,80,0.5)"/>
    <rect x="73" y="33" width="25" height="2" rx="1" fill="rgba(76,175,80,0.5)"/>
    
    <!-- Ventana 2 -->
    <rect x="78" y="24" width="38" height="28" rx="4" fill="white" opacity="0.8"/>
    <rect x="81" y="27" width="32" height="4" rx="2" fill="rgba(33,150,243,0.8)"/>
    <rect x="81" y="33" width="25" height="2" rx="1" fill="rgba(33,150,243,0.5)"/>
    <rect x="81" y="37" width="28" height="2" rx="1" fill="rgba(33,150,243,0.5)"/>
    <rect x="81" y="41" width="30" height="2" rx="1" fill="rgba(33,150,243,0.5)"/>
    
    <!-- Ventana 3 -->
    <rect x="86" y="32" width="38" height="28" rx="4" fill="white" opacity="0.7"/>
    <rect x="89" y="35" width="32" height="4" rx="2" fill="rgba(255,152,0,0.8)"/>
    <rect x="89" y="41" width="30" height="2" rx="1" fill="rgba(255,152,0,0.5)"/>
    <rect x="89" y="45" width="26" height="2" rx="1" fill="rgba(255,152,0,0.5)"/>
    <rect x="89" y="49" width="28" height="2" rx="1" fill="rgba(255,152,0,0.5)"/>
  </g>
  
  <!-- Efecto de brillo sutil -->
  <ellipse cx="64" cy="40" rx="30" ry="10" fill="url(#bgGradient128)" opacity="0.1" filter="url(#glowEffect)"/>
</svg>